# AST/ASF file generated using VICON BodyLanguage
# -----------------------------------------------
:version 1.10
:name VICON
:units
  mass 1.0
  length 0.45
  angle deg
:documentation
   .ast/.asf automatically generated from VICON data using
   VICON BodyBuilder and BodyLanguage model FoxedUp or BRILLIANT.MOD
:root
   order TX TY TZ RX RY RZ
   axis XYZ
   position 0 0 0  
   orientation 0 0 0 
:bonedata
  begin
     id 1 
     name lhipjoint
     direction 0.682418 -0.694059 0.22932 
     length 2.25561 
     axis 0 0 0  XYZ
  end
  begin
     id 2 
     name lfemur
     direction 0.34202 -0.939693 0  
     length 6.96448  
     axis 0 0 20  XYZ
    dof rx ry rz
    limits (-160.0 20.0)
           (-70.0 70.0)
           (-60.0 70.0)
  end
  begin
     id 3 
     name ltibia
     direction 0.34202 -0.939693 0   
     length 6.88553   
     axis 0 0 20   XYZ
    dof rx
    limits (-10.0 170.0)
  end
  begin
     id 4 
     name lfoot
     direction 0.0723587 -0.198804 0.977364   
     length 1.88518   
     axis -90 7.62852e-016 20   XYZ
    dof rx rz
    limits (-45.0 90.0)
           (-70.0 20.0)
  end
  begin
     id 5 
     name ltoes
     direction 1.53558e-011 -4.21962e-011 1   
     length 0.952124   
     axis -90 7.62852e-016 20   XYZ
    dof rx
    limits (-90.0 20.0)
  end
  begin
     id 6 
     name rhipjoint
     direction -0.657603 -0.71533 0.236348   
     length 2.18854  
     axis 0 0 0  XYZ 
  end
  begin
     id 7 
     name rfemur
     direction -0.34202 -0.939693 0   
     length 6.86686   
     axis 0 0 -20   XYZ
    dof rx ry rz
    limits (-160.0 20.0)
           (-70.0 70.0)
           (-70.0 60.0)
  end
  begin
     id 8 
     name rtibia
     direction -0.34202 -0.939693 0   
     length 6.59503   
     axis 0 0 -20   XYZ
    dof rx
    limits (-10.0 170.0)
 end
 begin
     id 9 
     name rfoot
     direction -0.101977 -0.280179 0.954516   
     length 1.93723  
     axis -90 -7.62852e-016 -20   XYZ
    dof rx rz
    limits (-45.0 90.0)
           (-20.0 70.0)
  end
  begin
     id 10 
     name rtoes
     direction -1.53564e-011 -4.21897e-011 1   
     length 0.970315   
     axis -90 -7.62852e-016 -20   XYZ
    dof rx
    limits (-90.0 20.0)
  end
  begin
     id 11 
     name lowerback
     direction -0.0339559 0.999421 -0.00235966   
     length 1.88543   
     axis 0 0 0   XYZ
    dof rx ry rz
    limits (-20.0 45.0)
           (-30.0 30.0)
           (-30.0 30.0)
  end
  begin
     id 12 
     name upperback
     direction 0.00401003 0.999739 0.0224689   
     length 1.8856   
     axis 0 0 0   XYZ
    dof rx ry rz
    limits (-20.0 45.0)
           (-30.0 30.0)
           (-30.0 30.0)
  end
  begin
     id 13 
     name thorax
     direction 0.0198619 0.999546 0.0226536   
     length 1.88352   
     axis 0 0 0   XYZ
    dof rx ry rz
    limits (-20.0 45.0)
           (-30.0 30.0)
           (-30.0 30.0)
  end
  begin
     id 14 
     name lowerneck
     direction -0.0461848 0.998632 0.0245198   
     length 1.34895   
     axis 0 0 0   XYZ
    dof rx ry rz
    limits (-20.0 45.0)
           (-30.0 30.0)
           (-30.0 30.0)
  end
  begin
     id 15 
     name upperneck
     direction -0.0180627 0.994724 -0.100984   
     length 1.35214   
     axis 0 0 0   XYZ
    dof rx ry rz
    limits (-20.0 45.0)
           (-30.0 30.0)
           (-30.0 30.0)
  end
  begin
     id 16
     name head
     direction -0.00374772 0.999293 -0.037403  
     length 1.3568  
     axis 0 0 0   XYZ
    dof rx ry rz
    limits (-20.0 45.0)
           (-30.0 30.0)
           (-30.0 30.0)
  end
  begin
     id 17 
     name lclavicle
     direction 0.971773 0.191119 0.138311  
     length 2.84954  
     axis 0 0 0   XYZ
    dof ry rz
    limits (-20.0 10.0)
           (0.0 20.0)
  end
  begin
     id 18 
     name lhumerus
     direction 1 -4.4897e-011 -2.43761e-027   
     length 4.40919   
     axis 180 -30 -90   XYZ
    dof rx ry rz
    limits (-60.0 90.0)
           (-90.0 90.0)
           (-90.0 90.0)
  end
  begin
     id 19
     name lradius
     direction 1 -4.4896e-011 -9.1621e-027   
     length 3.03857   
     axis 180 -30 -90   XYZ
    dof rx
    limits (-10.0 170.0)
  end
  begin
     id 20
     name lwrist
     direction 1 -4.4896e-011 -1.41363e-026   
     length 1.51928   
     axis 1.07133e-014 90 90   XYZ
    dof ry
    limits (-180.0 0.0)
 end
  begin
     id 21 
     name lhand
     direction 1 -4.48978e-011 -2.82725e-026   
     length 0.523208   
     axis 1.80403e-014 90 90   XYZ
    dof rx rz
    limits (-90.0 90.0)
           (-45.0 45.0)
  end
  begin
     id 22 
     name lfingers
     direction 1 -4.48977e-011 -5.6545e-026   
     length 0.421824   
     axis 3.60806e-014 90 90   XYZ
    dof rx
    limits (0.0 90.0)
  end
  begin
     id 23
     name lthumb
     direction 0.707107 -6.34962e-011 0.707107   
     length 0.605657   
     axis -90 45 2.85299e-015   XYZ
    dof rx rz
    limits (-45.0 45.0)
           (-45.0 45.0)
  end
  begin
     id 24 
     name rclavicle
     direction -0.957247 0.24311 0.156766   
     length 3.12406  
     axis 0 0 0   XYZ 
    dof ry rz
    limits (-10.0 20.0)
           (-20.0 0.0)
  end
  begin
     id 25 
     name rhumerus
     direction -1 -4.48964e-011 -1.70632e-027  
     length 4.61969   
     axis 180 30 90   XYZ
    dof rx ry rz
    limits (-90.0 60.0)
           (-90.0 90.0)
           (-90.0 90.0)
  end
  begin
     id 26 
     name rradius
     direction -1 -4.48966e-011 -6.60395e-027   
     length 3.09382   
     axis 180 30 90   XYZ
    dof rx
    limits (-10.0 170.0)
  end
  begin
     id 27 
     name rwrist
     direction -1 -4.48963e-011 -1.41363e-026   
     length 1.54691   
     axis 1.07133e-014 -90 -90   XYZ
    dof ry
    limits (-180.0 0.0)
  end
  begin
     id 28
     name rhand
     direction -1 -4.49013e-011 -2.82725e-026   
     length 0.500896   
     axis 1.80403e-014 -90 -90   XYZ
    dof rx rz
    limits (-90.0 90.0)
           (-45.0 45.0)
  end
  begin
     id 29
     name rfingers
     direction -1 -4.48902e-011 -5.6545e-026   
     length 0.403835   
     axis 3.60806e-014 -90 -90   XYZ
    dof rx
    limits (0.0 90.0)
  end
  begin
     id 30
     name rthumb
     direction -0.707107 -6.34953e-011 0.707107   
     length 0.579829   
     axis -90 -45 -2.85299e-015   XYZ
    dof rx rz
    limits (-45.0 45.0)
           (-45.0 45.0)
  end
:hierarchy
  begin
    root lhipjoint rhipjoint lowerback
    lhipjoint lfemur
    lfemur ltibia
    ltibia lfoot
    lfoot ltoes
    rhipjoint rfemur
    rfemur rtibia
    rtibia rfoot
    rfoot rtoes
    lowerback upperback
    upperback thorax
    thorax lowerneck lclavicle rclavicle
    lowerneck upperneck
    upperneck head
    lclavicle lhumerus
    lhumerus lradius
    lradius lwrist
    lwrist lhand lthumb
    lhand lfingers
    rclavicle rhumerus
    rhumerus rradius
    rradius rwrist
    rwrist rhand rthumb
    rhand rfingers
  end

#!OML:ASF E:\madness\Project 1\Capture day 1\Session 1\Female1.ASF
:FULLY-SPECIFIED
:DEGREES
752
root 6.47114 16.0578 2.30545 -29.1611 -86.5082 38.4163
lowerback 0.449735 2.80378 -1.19236
upperback -2.26174 3.66824 -1.45287
thorax -2.55216 1.83146 -0.921187
lowerneck -0.397494 9.95419 6.27882
upperneck 30.6066 14.3266 -7.06606
head 10.9274 6.17609 -2.29623
rclavicle -2.14571e-014 2.2239e-015
rhumerus -72.1519 -26.7823 -20.3419
rradius 56.4704
rwrist -4.48118
rhand -13.5878 -45.0359
rfingers 7.12502
rthumb 12.5266 -74.6405
lclavicle -2.14571e-014 2.2239e-015
lhumerus -56.0176 8.45273 36.3
lradius 106.864
lwrist 0.374863
lhand -31.9064 -8.28927
lfingers 7.12502
lthumb -5.15833 21.6279
rfemur -13.8015 -5.27942 27.0643
rtibia 25.3406
rfoot -19.9999 3.7925
rtoes 9.74408
lfemur -57.404 -13.3829 -12.2155
ltibia 44.3256
lfoot 0.894495 -5.39077
ltoes 20.1415
753
root 6.42854 16.0505 2.30389 -35.2619 -86.8541 44.5833
lowerback 0.45307 2.90724 -1.24488
upperback -2.42996 3.79808 -1.51698
thorax -2.72595 1.89565 -0.967608
lowerneck 0.120736 9.93648 6.7446
upperneck 30.5273 14.3077 -7.28384
head 10.8546 6.20999 -2.47912
rclavicle 8.02981e-014 -1.33434e-014
rhumerus -72.5605 -26.5343 -20.1879
rradius 56.4728
rwrist -5.11448
rhand -14.0357 -45.2161
rfingers 7.12502
rthumb 12.0947 -74.8466
lclavicle 8.02981e-014 -1.33434e-014
lhumerus -55.9781 8.04248 36.412
lradius 106.952
lwrist 0.573981
lhand -32.4104 -7.83349
lfingers 7.12502
lthumb -5.64499 22.0713
rfemur -13.8693 -5.19938 26.9752
rtibia 25.6807
rfoot -20.1123 4.07272
rtoes 14.2372
lfemur -57.2548 -13.3267 -12.0101
ltibia 43.636
lfoot 1.54966 -5.46524
ltoes 19.5486
754
root 6.38486 16.0412 2.3035 -41.4013 -87.1387 50.6443
lowerback 0.528144 2.9222 -1.24108
upperback -2.51884 3.81159 -1.58165
thorax -2.85521 1.90078 -1.04395
lowerneck 0.123352 10.1404 6.94206
upperneck 30.6326 14.5705 -7.23192
head 10.9333 6.35076 -2.4609
rclavicle 4.99664e-014 4.72114e-015
rhumerus -72.8598 -26.3226 -20.2144
rradius 56.5335
rwrist -5.65883
rhand -14.7531 -46.1647
rfingers 7.12502
rthumb 11.4028 -75.8347
lclavicle 4.99664e-014 4.72114e-015
lhumerus -55.9967 7.80314 36.3532
lradius 106.983
lwrist 0.594203
lhand -32.8397 -7.51846
lfingers 7.12502
lthumb -6.05944 22.3749
rfemur -13.5709 -5.2086 26.9195
rtibia 25.6068
rfoot -20.0326 4.4456
rtoes 14.4372
lfemur -56.845 -13.3867 -11.7607
ltibia 42.7215
lfoot 2.16533 -5.6209
ltoes 20.1615
755
root 6.34024 16.0273 2.3025 -46.5943 -87.382 55.7275
lowerback 0.447827 2.93614 -1.15214
upperback -2.46655 3.833 -1.6501
thorax -2.74535 1.9087 -1.15719
lowerneck 0.502271 10.2302 7.32168
upperneck 30.2926 14.7104 -7.44305
head 10.7936 6.4585 -2.5996
rclavicle -2.87182e-014 1.69961e-014
rhumerus -73.3067 -26.5695 -19.9775
rradius 56.5588
rwrist -5.52928
rhand -14.9443 -46.0549
rfingers 7.12502
rthumb 11.2184 -75.7349
lclavicle -2.87182e-014 1.69961e-014
lhumerus -55.7209 7.77359 36.2432
lradius 106.863
lwrist 0.470301
lhand -32.6004 -7.50628
lfingers 7.12502
lthumb -5.82841 22.3936
rfemur -13.4572 -5.14944 26.8909
rtibia 25.9776
rfoot -20.0935 5.13522
rtoes 15.2415
lfemur -56.3844 -13.2628 -11.7241
ltibia 42.1123
lfoot 2.47255 -6.0836
ltoes 14.1686
756
root 6.30188 16.0797 2.29461 -52.4411 -87.6177 61.55
lowerback 0.225083 2.88148 -1.12694
upperback -2.37692 3.76832 -1.61664
thorax -2.52884 1.87681 -1.11899
lowerneck 0.939831 10.3218 7.56417
upperneck 29.7511 14.8922 -7.78879
head 10.5705 6.56696 -2.76259
rclavicle 4.17075e-014 -4.72114e-015
rhumerus -73.4007 -26.8165 -19.8651
rradius 56.5863
rwrist -5.40065
rhand -15.0394 -45.8426
rfingers 7.12502
rthumb 11.1268 -75.5276
lclavicle 4.17075e-014 -4.72114e-015
lhumerus -55.6163 7.85112 36.1059
lradius 106.745
lwrist 0.512546
lhand -32.4555 -7.72428
lfingers 7.12502
lthumb -5.68856 22.1794
rfemur -13.4148 -5.07924 26.8756
rtibia 26.2714
rfoot -20.1122 5.72532
rtoes 16.3689
lfemur -57.5791 -13.9861 -10.4247
ltibia 41.349
lfoot 6.1817 -4.11949
ltoes 33.635
757
root 6.24299 15.9942 2.30083 -60.8552 -87.7826 69.9263
lowerback 0.135235 2.8429 -1.11153
upperback -2.34685 3.71909 -1.62803
thorax -2.44607 1.8518 -1.1318
lowerneck 0.876523 10.4774 7.66621
upperneck 29.6564 15.1246 -7.88073
head 10.5867 6.67662 -2.77976
rclavicle 1.86858e-014 1.19271e-015
rhumerus -73.4531 -26.8219 -19.8251
rradius 56.537
rwrist -5.45809
rhand -15.1123 -46.3263
rfingers 7.12502
rthumb 11.0564 -76.0151
lclavicle 1.86858e-014 1.19271e-015
lhumerus -55.5173 7.80394 36.0524
lradius 106.644
lwrist 0.643781
lhand -32.9507 -7.77621
lfingers 7.12502
lthumb -6.16666 22.114
rfemur -13.3377 -5.50549 26.954
rtibia 26.7048
rfoot -20.5772 5.61047
rtoes 17.0671
lfemur -55.9638 -13.1001 -11.4532
ltibia 41.0548
lfoot 3.6129 -6.56597
ltoes 12.7098
758
root 6.1989 15.9943 2.29797 -71.9634 -87.8661 81.0194
lowerback 0.112125 2.84971 -1.15604
upperback -2.35765 3.72683 -1.64301
thorax -2.44603 1.85614 -1.1217
lowerneck 0.566836 10.6648 7.68151
upperneck 29.9212 15.3935 -7.86588
head 10.7756 6.78105 -2.72753
rclavicle -1.47784e-014 -5.66536e-015
rhumerus -73.6486 -26.7182 -19.667
rradius 56.4174
rwrist -5.53305
rhand -15.0865 -46.0571
rfingers 7.12502
rthumb 11.0813 -75.7445
lclavicle -1.47784e-014 -5.66536e-015
lhumerus -55.552 7.7412 36.1268
lradius 106.75
lwrist 0.68788
lhand -33.3667 -7.54215
lfingers 7.12502
lthumb -6.56823 22.336
rfemur -13.2944 -5.27754 26.754
rtibia 26.9591
rfoot -20.4852 6.47229
rtoes 18.8859
lfemur -55.6979 -13.0747 -11.2814
ltibia 40.617
lfoot 3.9251 -6.42076
ltoes 13.9998
759
root 6.15347 15.9772 2.29646 -82.2868 -87.9275 91.3114
lowerback 0.149469 2.83597 -1.17953
upperback -2.37035 3.70817 -1.59753
thorax -2.48476 1.84783 -1.06432
lowerneck 0.258825 10.8552 7.65727
upperneck 30.2849 15.6561 -7.78844
head 10.9944 6.87908 -2.6468
rclavicle -5.49143e-015 -1.8487e-014
rhumerus -73.8143 -26.7281 -19.4923
rradius 56.3582
rwrist -5.54474
rhand -15.2532 -45.8208
rfingers 7.12502
rthumb 10.9205 -75.5169
lclavicle -5.49143e-015 -1.8487e-014
lhumerus -55.6679 7.69221 36.1456
lradius 106.931
lwrist 0.787019
lhand -33.2976 -7.13683
lfingers 7.12502
lthumb -6.50149 22.7434
rfemur -13.387 -5.54081 26.81
rtibia 27.6318
rfoot -20.9395 6.59393
rtoes 17.6535
lfemur -55.632 -12.9494 -11.148
ltibia 40.5415
lfoot 4.06706 -6.38084
ltoes 13.8173
760
root 6.10494 15.957 2.29684 -89.1007 -87.9685 98.0546
lowerback 0.305451 2.8212 -1.04571
upperback -2.46719 3.68408 -1.6286
thorax -2.66188 1.83203 -1.18201
lowerneck 0.166173 10.9953 7.58835
upperneck 30.5009 15.7821 -7.47255
head 11.0742 6.94724 -2.50177
rclavicle -8.63471e-016 6.4605e-015
rhumerus -74.1969 -26.6782 -19.2767
rradius 56.4014
rwrist -5.55598
rhand -15.4034 -46.18
rfingers 7.12502
rthumb 10.7757 -75.8836
lclavicle -8.63471e-016 6.4605e-015
lhumerus -55.4822 7.57065 36.0857
lradius 106.828
lwrist 0.870868
lhand -33.049 -7.15571
lfingers 7.12502
lthumb -6.26151 22.7317
rfemur -13.2896 -5.90763 26.91
rtibia 27.983
rfoot -21.2531 6.60951
rtoes 16.8001
lfemur -55.4541 -12.9376 -10.986
ltibia 40.2594
lfoot 4.24233 -6.36006
ltoes 13.9924
761
root 6.05978 15.9428 2.29519 -103.175 -87.9538 112.348
lowerback 0.173823 2.87054 -0.960472
upperback -2.69831 3.74594 -1.63935
thorax -2.81932 1.85905 -1.24294
lowerneck 0.388478 11.1388 7.55773
upperneck 30.4414 15.934 -7.28242
head 11.0029 7.03927 -2.4239
rclavicle 5.01496e-014 -8.44835e-015
rhumerus -74.5661 -26.3487 -19.1011
rradius 56.4519
rwrist -5.59805
rhand -15.1068 -46.2804
rfingers 7.12502
rthumb 11.0617 -75.9689
lclavicle 5.01496e-014 -8.44835e-015
lhumerus -55.4604 7.41761 36.0407
lradius 106.737
lwrist 0.875477
lhand -32.8942 -7.51015
lfingers 7.12502
lthumb -6.11208 22.3817
rfemur -13.5651 -5.85615 27.0044
rtibia 28.3762
rfoot -21.3557 6.96585
rtoes 16.9788
lfemur -55.5418 -12.7224 -10.6642
ltibia 40.0182
lfoot 4.7792 -5.92056
ltoes 16.3476
762
root 6.01624 15.9301 2.29222 -120.959 -87.6795 130.677
lowerback -0.393423 3.00067 -0.985439
upperback -2.92024 3.92126 -1.61276
thorax -2.73069 1.9456 -1.18123
lowerneck 0.801999 11.1882 7.84119
upperneck 30.1222 16.0634 -7.63302
head 10.8732 7.11724 -2.60235
rclavicle 4.34841e-017 -3.47873e-015
rhumerus -74.7772 -26.3802 -18.767
rradius 56.2651
rwrist -5.41755
rhand -14.5039 -46.1832
rfingers 7.12502
rthumb 11.6432 -75.8397
lclavicle 4.34841e-017 -3.47873e-015
lhumerus -55.3822 7.29496 36.1298
lradius 106.654
lwrist 0.812994
lhand -32.8969 -7.70142
lfingers 7.12502
lthumb -6.1147 22.1903
rfemur -14.2578 -5.56281 27.1044
rtibia 28.9087
rfoot -21.4662 7.35405
rtoes 16.946
lfemur -55.9623 -12.278 -10.2749
ltibia 39.7744
lfoot 5.656 -5.07849
ltoes 20.1404
763
root 5.96719 15.9134 2.2934 -128.087 -87.3265 138.079
lowerback -0.759679 3.10051 -1.03287
upperback -3.00265 4.05554 -1.6442
thorax -2.60951 2.01231 -1.17056
lowerneck 1.23104 11.1209 8.15338
upperneck 29.8109 16.0293 -8.00145
head 10.7324 7.12285 -2.81216
rclavicle 2.10091e-014 -4.07509e-015
rhumerus -75.1514 -26.7068 -18.228
rradius 56.0649
rwrist -5.18358
rhand -14.1324 -45.9035
rfingers 7.12502
rthumb 12.0015 -75.5394
lclavicle 2.10091e-014 -4.07509e-015
lhumerus -55.0261 7.1494 36.3065
lradius 106.482
lwrist 0.725396
lhand -32.8944 -7.52669
lfingers 7.12502
lthumb -6.11224 22.3651
rfemur -14.6712 -5.57474 27.0393
rtibia 29.5553
rfoot -21.723 7.66176
rtoes 16.7695
lfemur -56.1579 -12.11 -10.1246
ltibia 39.5082
lfoot 5.7273 -5.06991
ltoes 19.3169
764
root 5.9184 15.8934 2.2981 -131.31 -87.1023 141.288
lowerback -0.746589 3.09561 -1.00441
upperback -3.05009 4.04683 -1.65496
thorax -2.66316 2.0066 -1.19985
lowerneck 1.2624 11.1683 8.16475
upperneck 29.9214 16.0734 -7.91744
head 10.7677 7.14631 -2.78109
rclavicle -1.11071e-014 1.13307e-014
rhumerus -75.5052 -26.6661 -17.977
rradius 56.12
rwrist -5.21467
rhand -14.1037 -45.9789
rfingers 7.12502
rthumb 12.0291 -75.6132
lclavicle -1.11071e-014 1.13307e-014
lhumerus -54.8938 7.10135 36.3641
lradius 106.432
lwrist 0.72643
lhand -32.942 -7.17455
lfingers 7.12502
lthumb -6.15818 22.7159
rfemur -14.7954 -5.77004 26.9772
rtibia 30.2056
rfoot -22.0126 7.8612
rtoes 16.3894
lfemur -56.0531 -12.1032 -10.0791
ltibia 39.2166
lfoot 6.33917 -4.25571
ltoes 21.9684
765
root 5.87256 15.8759 2.30225 -132.846 -86.9405 142.856
lowerback -0.770978 2.89519 -1.0497
upperback -3.12097 3.7767 -1.62186
thorax -2.73087 1.87222 -1.13793
lowerneck 0.777398 11.5268 7.92001
upperneck 30.2467 16.5461 -7.67632
head 10.9892 7.32847 -2.56892
rclavicle 2.7718e-014 -2.98177e-016
rhumerus -75.3154 -26.4429 -18.2025
rradius 56.0739
rwrist -5.25989
rhand -14.0092 -46.2438
rfingers 7.12502
rthumb 12.1202 -75.8728
lclavicle 2.7718e-014 -2.98177e-016
lhumerus -55.2377 7.37939 36.1325
lradius 106.507
lwrist 0.757168
lhand -33.0408 -7.33982
lfingers 7.12502
lthumb -6.25356 22.5479
rfemur -14.9857 -5.95738 26.9081
rtibia 30.8356
rfoot -22.2462 8.12753
rtoes 16.7254
lfemur -55.9549 -12.1248 -10.0712
ltibia 38.8788
lfoot 6.15553 -5.19955
ltoes 15.7211
766
root 5.8218 15.8628 2.30343 -132.844 -86.7461 142.876
lowerback -0.907812 2.7361 -1.16971
upperback -3.12479 3.56368 -1.64247
thorax -2.66622 1.76775 -1.08174
lowerneck 1.40949 11.6055 8.46491
upperneck 29.8511 16.7296 -8.16726
head 10.8382 7.45468 -2.84401
rclavicle 3.2843e-014 2.98177e-016
rhumerus -75.1869 -26.4489 -18.2584
rradius 55.8648
rwrist -5.24557
rhand -14.145 -45.877
rfingers 7.12502
rthumb 11.9893 -75.5136
lclavicle 3.2843e-014 2.98177e-016
lhumerus -55.5045 7.49349 35.9935
lradius 106.623
lwrist 0.718922
lhand -32.9845 -7.54364
lfingers 7.12502
lthumb -6.19925 22.3457
rfemur -15.0942 -6.16993 26.7523
rtibia 31.3979
rfoot -22.4678 8.44616
rtoes 17.0067
lfemur -55.8174 -12.2202 -10.0993
ltibia 38.5337
lfoot 6.53255 -5.12932
ltoes 16.0282
